<mxfile host="app.diagrams.net" modified="2021-10-04T10:17:09.341Z" agent="5.0 (Windows NT 10.0; Win64; x64) AppleWebKit/537.36 (KHTML, like Gecko) Chrome/92.0.4515.159 YaBrowser/21.8.3.614 Yowser/2.5 Safari/537.36" etag="cwcLKQoYBu7J_cTpyiFd" version="15.4.1" type="github">
  <diagram id="yPxyJZ8AM_hMuL3Unpa9" name="complex gitflow">
    <mxGraphModel dx="1673" dy="900" grid="1" gridSize="10" guides="1" tooltips="1" connect="1" arrows="1" fold="1" page="1" pageScale="1" pageWidth="1100" pageHeight="850" math="0" shadow="0">
      <root>
        <mxCell id="0" />
        <mxCell id="1" parent="0" />
        <UserObject label="Диаграмму вариантов использования" link="https://nvie.com/posts/a-successful-git-branching-model/" id="9hBKPDzoitwpIBdzFDQ7-2">
          <mxCell style="text;whiteSpace=wrap;html=1;fontStyle=1;fontSize=16;" parent="1" vertex="1">
            <mxGeometry x="389" y="30" width="427.75" height="20" as="geometry" />
          </mxCell>
        </UserObject>
        <mxCell id="9yvrEu68hSg8ux5ZB1VL-1" value="&lt;span&gt;&lt;/span&gt;&lt;span&gt;&lt;/span&gt;&lt;span&gt;&lt;font style=&quot;font-size: 15px&quot;&gt;Процесс: продажа программного продукта&lt;/font&gt;&lt;/span&gt;" style="text;whiteSpace=wrap;html=1;" vertex="1" parent="1">
          <mxGeometry x="392.5" y="60" width="307.75" height="30" as="geometry" />
        </mxCell>
        <mxCell id="9yvrEu68hSg8ux5ZB1VL-5" value="" style="edgeStyle=orthogonalEdgeStyle;rounded=0;orthogonalLoop=1;jettySize=auto;html=1;fontSize=15;" edge="1" parent="1" source="9yvrEu68hSg8ux5ZB1VL-3" target="9yvrEu68hSg8ux5ZB1VL-4">
          <mxGeometry relative="1" as="geometry" />
        </mxCell>
        <mxCell id="9yvrEu68hSg8ux5ZB1VL-3" value="Заказчик" style="shape=umlActor;verticalLabelPosition=bottom;verticalAlign=top;html=1;outlineConnect=0;fillColor=#d5e8d4;strokeColor=#82b366;" vertex="1" parent="1">
          <mxGeometry x="50" y="225" width="30" height="60" as="geometry" />
        </mxCell>
        <mxCell id="9yvrEu68hSg8ux5ZB1VL-6" style="edgeStyle=orthogonalEdgeStyle;rounded=0;orthogonalLoop=1;jettySize=auto;html=1;exitX=0.25;exitY=0.1;exitDx=0;exitDy=0;exitPerimeter=0;fontSize=15;" edge="1" parent="1" source="9yvrEu68hSg8ux5ZB1VL-4">
          <mxGeometry relative="1" as="geometry">
            <mxPoint x="110" y="371" as="targetPoint" />
          </mxGeometry>
        </mxCell>
        <mxCell id="9yvrEu68hSg8ux5ZB1VL-4" value="Разработчик" style="shape=umlActor;verticalLabelPosition=bottom;verticalAlign=top;html=1;outlineConnect=0;fillColor=#dae8fc;strokeColor=#6c8ebf;" vertex="1" parent="1">
          <mxGeometry x="50" y="365" width="30" height="60" as="geometry" />
        </mxCell>
        <mxCell id="9yvrEu68hSg8ux5ZB1VL-11" value="" style="edgeStyle=orthogonalEdgeStyle;rounded=0;orthogonalLoop=1;jettySize=auto;html=1;fontSize=15;" edge="1" parent="1" source="9yvrEu68hSg8ux5ZB1VL-7">
          <mxGeometry relative="1" as="geometry">
            <mxPoint x="189" y="255" as="targetPoint" />
          </mxGeometry>
        </mxCell>
        <mxCell id="9yvrEu68hSg8ux5ZB1VL-7" value="Создание технического задания" style="rounded=0;whiteSpace=wrap;html=1;fontSize=15;fillColor=#dae8fc;strokeColor=#6c8ebf;" vertex="1" parent="1">
          <mxGeometry x="109.63" y="345" width="120" height="60" as="geometry" />
        </mxCell>
        <mxCell id="9yvrEu68hSg8ux5ZB1VL-14" value="" style="edgeStyle=orthogonalEdgeStyle;rounded=0;orthogonalLoop=1;jettySize=auto;html=1;fontSize=15;" edge="1" parent="1" source="9yvrEu68hSg8ux5ZB1VL-8" target="9yvrEu68hSg8ux5ZB1VL-9">
          <mxGeometry relative="1" as="geometry" />
        </mxCell>
        <mxCell id="9yvrEu68hSg8ux5ZB1VL-15" value="" style="edgeStyle=orthogonalEdgeStyle;rounded=0;orthogonalLoop=1;jettySize=auto;html=1;fontSize=15;" edge="1" parent="1" source="9yvrEu68hSg8ux5ZB1VL-8" target="9yvrEu68hSg8ux5ZB1VL-13">
          <mxGeometry relative="1" as="geometry" />
        </mxCell>
        <mxCell id="9yvrEu68hSg8ux5ZB1VL-39" style="edgeStyle=orthogonalEdgeStyle;rounded=0;orthogonalLoop=1;jettySize=auto;html=1;fontSize=15;" edge="1" parent="1" source="9yvrEu68hSg8ux5ZB1VL-8">
          <mxGeometry relative="1" as="geometry">
            <mxPoint x="330" y="190" as="targetPoint" />
          </mxGeometry>
        </mxCell>
        <mxCell id="9yvrEu68hSg8ux5ZB1VL-8" value="Согласование технического задания" style="rounded=0;whiteSpace=wrap;html=1;fontSize=15;fillColor=#d5e8d4;strokeColor=#82b366;" vertex="1" parent="1">
          <mxGeometry x="270.25" y="225" width="120" height="60" as="geometry" />
        </mxCell>
        <mxCell id="9yvrEu68hSg8ux5ZB1VL-17" value="" style="edgeStyle=orthogonalEdgeStyle;rounded=0;orthogonalLoop=1;jettySize=auto;html=1;fontSize=15;exitX=0.013;exitY=0.598;exitDx=0;exitDy=0;exitPerimeter=0;" edge="1" parent="1" source="9yvrEu68hSg8ux5ZB1VL-9">
          <mxGeometry relative="1" as="geometry">
            <mxPoint x="250" y="255" as="targetPoint" />
            <Array as="points">
              <mxPoint x="250" y="381" />
              <mxPoint x="250" y="255" />
            </Array>
          </mxGeometry>
        </mxCell>
        <mxCell id="9yvrEu68hSg8ux5ZB1VL-9" value="Корректировка технического задания" style="rounded=0;whiteSpace=wrap;html=1;fontSize=15;fillColor=#dae8fc;strokeColor=#6c8ebf;" vertex="1" parent="1">
          <mxGeometry x="270.25" y="345" width="120" height="60" as="geometry" />
        </mxCell>
        <mxCell id="9yvrEu68hSg8ux5ZB1VL-12" value="" style="edgeStyle=orthogonalEdgeStyle;rounded=0;orthogonalLoop=1;jettySize=auto;html=1;fontSize=15;" edge="1" parent="1" target="9yvrEu68hSg8ux5ZB1VL-8">
          <mxGeometry relative="1" as="geometry">
            <mxPoint x="189" y="255" as="sourcePoint" />
          </mxGeometry>
        </mxCell>
        <mxCell id="9yvrEu68hSg8ux5ZB1VL-19" value="" style="edgeStyle=orthogonalEdgeStyle;rounded=0;orthogonalLoop=1;jettySize=auto;html=1;fontSize=15;" edge="1" parent="1" source="9yvrEu68hSg8ux5ZB1VL-13" target="9yvrEu68hSg8ux5ZB1VL-18">
          <mxGeometry relative="1" as="geometry" />
        </mxCell>
        <mxCell id="9yvrEu68hSg8ux5ZB1VL-13" value="Приёмка технического задания" style="rounded=0;whiteSpace=wrap;html=1;fontSize=15;fillColor=#d5e8d4;strokeColor=#82b366;" vertex="1" parent="1">
          <mxGeometry x="409.75" y="225" width="120" height="60" as="geometry" />
        </mxCell>
        <mxCell id="9yvrEu68hSg8ux5ZB1VL-21" value="" style="edgeStyle=orthogonalEdgeStyle;rounded=0;orthogonalLoop=1;jettySize=auto;html=1;fontSize=15;" edge="1" parent="1" source="9yvrEu68hSg8ux5ZB1VL-18" target="9yvrEu68hSg8ux5ZB1VL-20">
          <mxGeometry relative="1" as="geometry" />
        </mxCell>
        <mxCell id="9yvrEu68hSg8ux5ZB1VL-18" value="Аванс за работы" style="rounded=0;whiteSpace=wrap;html=1;fontSize=15;fillColor=#dae8fc;strokeColor=#6c8ebf;" vertex="1" parent="1">
          <mxGeometry x="409.75" y="345" width="120" height="60" as="geometry" />
        </mxCell>
        <mxCell id="9yvrEu68hSg8ux5ZB1VL-24" value="" style="edgeStyle=orthogonalEdgeStyle;rounded=0;orthogonalLoop=1;jettySize=auto;html=1;fontSize=15;entryX=-0.005;entryY=0.407;entryDx=0;entryDy=0;entryPerimeter=0;" edge="1" parent="1" source="9yvrEu68hSg8ux5ZB1VL-20" target="9yvrEu68hSg8ux5ZB1VL-22">
          <mxGeometry relative="1" as="geometry">
            <mxPoint x="628" y="295" as="targetPoint" />
          </mxGeometry>
        </mxCell>
        <mxCell id="9yvrEu68hSg8ux5ZB1VL-20" value="Выполнение работ по программированию" style="rounded=0;whiteSpace=wrap;html=1;fontSize=15;fillColor=#dae8fc;strokeColor=#6c8ebf;" vertex="1" parent="1">
          <mxGeometry x="552.75" y="345" width="137.25" height="60" as="geometry" />
        </mxCell>
        <mxCell id="9yvrEu68hSg8ux5ZB1VL-25" value="" style="edgeStyle=orthogonalEdgeStyle;rounded=0;orthogonalLoop=1;jettySize=auto;html=1;fontSize=15;entryX=0.25;entryY=0;entryDx=0;entryDy=0;" edge="1" parent="1" source="9yvrEu68hSg8ux5ZB1VL-22" target="9yvrEu68hSg8ux5ZB1VL-23">
          <mxGeometry relative="1" as="geometry">
            <Array as="points">
              <mxPoint x="768" y="305" />
            </Array>
          </mxGeometry>
        </mxCell>
        <mxCell id="9yvrEu68hSg8ux5ZB1VL-22" value="Приёмка&amp;nbsp;работ по программированию" style="rounded=0;whiteSpace=wrap;html=1;fontSize=15;fillColor=#d5e8d4;strokeColor=#82b366;" vertex="1" parent="1">
          <mxGeometry x="649.75" y="225" width="150.25" height="60" as="geometry" />
        </mxCell>
        <mxCell id="9yvrEu68hSg8ux5ZB1VL-26" value="" style="edgeStyle=orthogonalEdgeStyle;rounded=0;orthogonalLoop=1;jettySize=auto;html=1;fontSize=15;entryX=0.402;entryY=1.007;entryDx=0;entryDy=0;entryPerimeter=0;exitX=-0.018;exitY=0.626;exitDx=0;exitDy=0;exitPerimeter=0;" edge="1" parent="1" source="9yvrEu68hSg8ux5ZB1VL-23" target="9yvrEu68hSg8ux5ZB1VL-22">
          <mxGeometry relative="1" as="geometry">
            <mxPoint x="700" y="295" as="targetPoint" />
            <Array as="points">
              <mxPoint x="710" y="383" />
            </Array>
          </mxGeometry>
        </mxCell>
        <mxCell id="9yvrEu68hSg8ux5ZB1VL-28" value="" style="edgeStyle=orthogonalEdgeStyle;rounded=0;orthogonalLoop=1;jettySize=auto;html=1;fontSize=15;" edge="1" parent="1" source="9yvrEu68hSg8ux5ZB1VL-23" target="9yvrEu68hSg8ux5ZB1VL-27">
          <mxGeometry relative="1" as="geometry" />
        </mxCell>
        <mxCell id="9yvrEu68hSg8ux5ZB1VL-42" value="" style="edgeStyle=orthogonalEdgeStyle;rounded=0;orthogonalLoop=1;jettySize=auto;html=1;fontSize=15;entryX=0.566;entryY=1.017;entryDx=0;entryDy=0;entryPerimeter=0;" edge="1" parent="1" target="9yvrEu68hSg8ux5ZB1VL-41">
          <mxGeometry relative="1" as="geometry">
            <mxPoint x="830" y="350" as="sourcePoint" />
            <Array as="points">
              <mxPoint x="830" y="310" />
              <mxPoint x="860" y="310" />
            </Array>
          </mxGeometry>
        </mxCell>
        <mxCell id="9yvrEu68hSg8ux5ZB1VL-23" value="Корректировка работ по программированию" style="rounded=0;whiteSpace=wrap;html=1;fontSize=15;fillColor=#dae8fc;strokeColor=#6c8ebf;" vertex="1" parent="1">
          <mxGeometry x="734.63" y="345" width="135.37" height="60" as="geometry" />
        </mxCell>
        <mxCell id="9yvrEu68hSg8ux5ZB1VL-32" value="" style="edgeStyle=orthogonalEdgeStyle;rounded=0;orthogonalLoop=1;jettySize=auto;html=1;fontSize=15;" edge="1" parent="1" source="9yvrEu68hSg8ux5ZB1VL-27" target="9yvrEu68hSg8ux5ZB1VL-31">
          <mxGeometry relative="1" as="geometry" />
        </mxCell>
        <mxCell id="9yvrEu68hSg8ux5ZB1VL-27" value="Получение окончательного расчёта" style="rounded=0;whiteSpace=wrap;html=1;fontSize=15;fillColor=#dae8fc;strokeColor=#6c8ebf;" vertex="1" parent="1">
          <mxGeometry x="888.75" y="345" width="110.75" height="60" as="geometry" />
        </mxCell>
        <mxCell id="9yvrEu68hSg8ux5ZB1VL-34" value="" style="edgeStyle=orthogonalEdgeStyle;rounded=0;orthogonalLoop=1;jettySize=auto;html=1;fontSize=15;" edge="1" parent="1" source="9yvrEu68hSg8ux5ZB1VL-31" target="9yvrEu68hSg8ux5ZB1VL-33">
          <mxGeometry relative="1" as="geometry" />
        </mxCell>
        <mxCell id="9yvrEu68hSg8ux5ZB1VL-31" value="Подписание закрывающих документов" style="rounded=0;whiteSpace=wrap;html=1;fontSize=15;fillColor=#dae8fc;strokeColor=#6c8ebf;" vertex="1" parent="1">
          <mxGeometry x="1040" y="345" width="110.75" height="60" as="geometry" />
        </mxCell>
        <mxCell id="9yvrEu68hSg8ux5ZB1VL-37" value="" style="edgeStyle=orthogonalEdgeStyle;rounded=0;orthogonalLoop=1;jettySize=auto;html=1;fontSize=15;" edge="1" parent="1" source="9yvrEu68hSg8ux5ZB1VL-33" target="9yvrEu68hSg8ux5ZB1VL-35">
          <mxGeometry relative="1" as="geometry" />
        </mxCell>
        <mxCell id="9yvrEu68hSg8ux5ZB1VL-38" style="edgeStyle=orthogonalEdgeStyle;rounded=0;orthogonalLoop=1;jettySize=auto;html=1;fontSize=15;entryX=-0.023;entryY=0.672;entryDx=0;entryDy=0;entryPerimeter=0;" edge="1" parent="1" source="9yvrEu68hSg8ux5ZB1VL-33" target="9yvrEu68hSg8ux5ZB1VL-36">
          <mxGeometry relative="1" as="geometry">
            <mxPoint x="1190" y="385" as="targetPoint" />
            <Array as="points">
              <mxPoint x="1170" y="265" />
              <mxPoint x="1170" y="385" />
            </Array>
          </mxGeometry>
        </mxCell>
        <mxCell id="9yvrEu68hSg8ux5ZB1VL-33" value="Подписание закрывающих документов" style="rounded=0;whiteSpace=wrap;html=1;fontSize=15;fillColor=#d5e8d4;strokeColor=#82b366;" vertex="1" parent="1">
          <mxGeometry x="1040" y="235" width="110.75" height="60" as="geometry" />
        </mxCell>
        <mxCell id="9yvrEu68hSg8ux5ZB1VL-35" value="Договор закрыт" style="rounded=0;whiteSpace=wrap;html=1;fontSize=15;fillColor=#d5e8d4;strokeColor=#82b366;" vertex="1" parent="1">
          <mxGeometry x="1200" y="235" width="110.75" height="60" as="geometry" />
        </mxCell>
        <mxCell id="9yvrEu68hSg8ux5ZB1VL-36" value="Договор закрыт" style="rounded=0;whiteSpace=wrap;html=1;fontSize=15;fillColor=#dae8fc;strokeColor=#6c8ebf;" vertex="1" parent="1">
          <mxGeometry x="1200" y="345" width="110.75" height="60" as="geometry" />
        </mxCell>
        <mxCell id="9yvrEu68hSg8ux5ZB1VL-40" value="Выход без договора" style="rounded=0;whiteSpace=wrap;html=1;fontSize=15;fillColor=#f8cecc;strokeColor=#b85450;" vertex="1" parent="1">
          <mxGeometry x="269" y="130" width="120" height="60" as="geometry" />
        </mxCell>
        <mxCell id="9yvrEu68hSg8ux5ZB1VL-41" value="Выход с разрешением спора через 3ю сторону" style="rounded=0;whiteSpace=wrap;html=1;fontSize=15;fillColor=#f8cecc;strokeColor=#b85450;" vertex="1" parent="1">
          <mxGeometry x="768.75" y="130" width="161.25" height="60" as="geometry" />
        </mxCell>
        <mxCell id="9yvrEu68hSg8ux5ZB1VL-43" value="" style="edgeStyle=orthogonalEdgeStyle;rounded=0;orthogonalLoop=1;jettySize=auto;html=1;fontSize=15;exitX=0.5;exitY=0;exitDx=0;exitDy=0;entryX=0;entryY=0.5;entryDx=0;entryDy=0;" edge="1" parent="1" source="9yvrEu68hSg8ux5ZB1VL-22" target="9yvrEu68hSg8ux5ZB1VL-41">
          <mxGeometry relative="1" as="geometry">
            <mxPoint x="840" y="350" as="sourcePoint" />
            <mxPoint x="710" y="160" as="targetPoint" />
            <Array as="points">
              <mxPoint x="725" y="160" />
            </Array>
          </mxGeometry>
        </mxCell>
        <mxCell id="9yvrEu68hSg8ux5ZB1VL-45" value="" style="edgeStyle=orthogonalEdgeStyle;rounded=0;orthogonalLoop=1;jettySize=auto;html=1;fontSize=15;entryX=0.566;entryY=1.017;entryDx=0;entryDy=0;entryPerimeter=0;exitX=0.25;exitY=0;exitDx=0;exitDy=0;" edge="1" parent="1" source="9yvrEu68hSg8ux5ZB1VL-31">
          <mxGeometry relative="1" as="geometry">
            <mxPoint x="1060" y="310" as="sourcePoint" />
            <mxPoint x="910.0174999999995" y="189.99999999999997" as="targetPoint" />
            <Array as="points">
              <mxPoint x="1068" y="310" />
              <mxPoint x="910" y="310" />
            </Array>
          </mxGeometry>
        </mxCell>
        <mxCell id="9yvrEu68hSg8ux5ZB1VL-46" value="" style="edgeStyle=orthogonalEdgeStyle;rounded=0;orthogonalLoop=1;jettySize=auto;html=1;fontSize=15;entryX=0.566;entryY=1.017;entryDx=0;entryDy=0;entryPerimeter=0;exitX=0.5;exitY=0;exitDx=0;exitDy=0;" edge="1" parent="1" source="9yvrEu68hSg8ux5ZB1VL-33">
          <mxGeometry relative="1" as="geometry">
            <mxPoint x="899.9999999999995" y="318.98" as="sourcePoint" />
            <mxPoint x="930.0174999999995" y="159.99999999999997" as="targetPoint" />
            <Array as="points">
              <mxPoint x="1095" y="160" />
            </Array>
          </mxGeometry>
        </mxCell>
      </root>
    </mxGraphModel>
  </diagram>
</mxfile>
